<svg width="100%" height="100%" viewBox="0 0 16 12" fill="none" xmlns="http://www.w3.org/2000/svg">
                          <path d="M15.9225 5.61921C15.8749 5.49646 15.8035 5.38431 15.7125 5.28921L11.7125 1.28921C11.6193 1.19597 11.5086 1.12201 11.3868 1.07155C11.2649 1.02109 11.1344 0.995117 11.0025 0.995117C10.7362 0.995117 10.4808 1.10091 10.2925 1.28921C10.1042 1.47751 9.99841 1.73291 9.99841 1.99921C9.99841 2.26551 10.1042 2.52091 10.2925 2.70921L12.5925 4.99921H1.0025C0.737286 4.99921 0.482932 5.10457 0.295396 5.2921C0.107859 5.47964 0.00250244 5.73399 0.00250244 5.99921C0.00250244 6.26443 0.107859 6.51878 0.295396 6.70632C0.482932 6.89385 0.737286 6.99921 1.0025 6.99921H12.5925L10.2925 9.28921C10.1988 9.38217 10.1244 9.49277 10.0736 9.61463C10.0228 9.73649 9.9967 9.8672 9.9967 9.99921C9.9967 10.1312 10.0228 10.2619 10.0736 10.3838C10.1244 10.5056 10.1988 10.6162 10.2925 10.7092C10.3855 10.8029 10.4961 10.8773 10.6179 10.9281C10.7398 10.9789 10.8705 11.005 11.0025 11.005C11.1345 11.005 11.2652 10.9789 11.3871 10.9281C11.5089 10.8773 11.6195 10.8029 11.7125 10.7092L15.7125 6.70921C15.8035 6.61411 15.8749 6.50196 15.9225 6.37921C16.0225 6.13575 16.0225 5.86267 15.9225 5.61921Z" fill="currentColor" />
                        </svg>