<svg width="25" height="25" viewBox="0 0 25 25" fill="none" xmlns="http://www.w3.org/2000/svg">
<path d="M15.9564 9.84898L13.4861 12.3184L15.9564 14.7877C16.0261 14.8574 16.0814 14.9401 16.1191 15.0312C16.1568 15.1222 16.1762 15.2198 16.1762 15.3184C16.1762 15.4169 16.1568 15.5145 16.1191 15.6055C16.0814 15.6966 16.0261 15.7793 15.9564 15.849C15.8867 15.9187 15.804 15.9739 15.713 16.0117C15.6219 16.0494 15.5243 16.0688 15.4258 16.0688C15.3272 16.0688 15.2297 16.0494 15.1386 16.0117C15.0476 15.9739 14.9648 15.9187 14.8952 15.849L12.4258 13.3787L9.95641 15.849C9.88673 15.9187 9.804 15.9739 9.71296 16.0117C9.62191 16.0494 9.52433 16.0688 9.42579 16.0688C9.32724 16.0688 9.22966 16.0494 9.13861 16.0117C9.04757 15.9739 8.96484 15.9187 8.89516 15.849C8.82548 15.7793 8.7702 15.6966 8.73249 15.6055C8.69478 15.5145 8.67537 15.4169 8.67537 15.3184C8.67537 15.2198 8.69478 15.1222 8.73249 15.0312C8.7702 14.9401 8.82548 14.8574 8.89516 14.7877L11.3655 12.3184L8.89516 9.84898C8.75443 9.70825 8.67537 9.51738 8.67537 9.31836C8.67537 9.11934 8.75443 8.92846 8.89516 8.78773C9.03589 8.647 9.22676 8.56794 9.42579 8.56794C9.62481 8.56794 9.81568 8.647 9.95641 8.78773L12.4258 11.258L14.8952 8.78773C14.9648 8.71805 15.0476 8.66278 15.1386 8.62506C15.2297 8.58735 15.3272 8.56794 15.4258 8.56794C15.5243 8.56794 15.6219 8.58735 15.713 8.62506C15.804 8.66278 15.8867 8.71805 15.9564 8.78773C16.0261 8.85742 16.0814 8.94014 16.1191 9.03119C16.1568 9.12223 16.1762 9.21981 16.1762 9.31836C16.1762 9.41691 16.1568 9.51449 16.1191 9.60553C16.0814 9.69658 16.0261 9.7793 15.9564 9.84898ZM22.1758 12.3184C22.1758 14.2467 21.604 16.1318 20.5326 17.7352C19.4613 19.3385 17.9385 20.5882 16.1569 21.3262C14.3754 22.0641 12.415 22.2572 10.5237 21.881C8.63234 21.5048 6.89506 20.5762 5.53149 19.2127C4.16793 17.8491 3.23934 16.1118 2.86313 14.2205C2.48692 12.3292 2.68001 10.3688 3.41796 8.5872C4.15591 6.80562 5.4056 5.28287 7.00898 4.21153C8.61236 3.14019 10.4974 2.56836 12.4258 2.56836C15.0108 2.57109 17.4892 3.59919 19.3171 5.42708C21.1449 7.25497 22.1731 9.73334 22.1758 12.3184ZM20.6758 12.3184C20.6758 10.6867 20.1919 9.09161 19.2854 7.7349C18.3789 6.3782 17.0904 5.32078 15.5829 4.69635C14.0754 4.07193 12.4166 3.90855 10.8163 4.22688C9.21595 4.54521 7.74594 5.33095 6.59215 6.48473C5.43837 7.63851 4.65263 9.10852 4.33431 10.7089C4.01598 12.3092 4.17936 13.968 4.80378 15.4755C5.4282 16.983 6.48563 18.2715 7.84233 19.178C9.19904 20.0845 10.7941 20.5684 12.4258 20.5684C14.6131 20.5659 16.71 19.6959 18.2567 18.1493C19.8033 16.6026 20.6733 14.5056 20.6758 12.3184Z" fill="#667085"/>
</svg>
