<svg width="432" height="88" viewBox="0 0 432 88" fill="none" xmlns="http://www.w3.org/2000/svg">
<path d="M40.9288 49.1592C40.9988 56.7892 34.8588 63.0292 27.2288 63.0892C34.8588 63.0192 41.0988 69.1592 41.1588 76.7892C41.0888 69.1592 47.2288 62.9192 54.8588 62.8592C47.2288 62.9292 40.9888 56.7892 40.9288 49.1592Z" fill="#242328"/>
<path d="M70.9792 0.399414H7.73917C3.6854 0.399414 0.39917 3.68341 0.39917 7.73441C0.39917 11.7854 3.6854 15.0694 7.73917 15.0694H70.9792C75.0329 15.0694 78.3192 11.7854 78.3192 7.73441C78.3192 3.68341 75.0329 0.399414 70.9792 0.399414Z" fill="#242328"/>
<path d="M7.73862 87.1096C3.78862 87.1096 0.588623 83.9096 0.588623 79.9596V68.1396C0.588623 45.2196 19.2286 26.5796 42.1386 26.5796H63.2286C67.1786 26.5796 70.3786 29.7796 70.3786 33.7296C70.3786 37.6796 67.1786 40.8796 63.2286 40.8796H42.1386C27.1186 40.8796 14.8986 53.0996 14.8986 68.1196V79.9396C14.8986 83.8896 11.6986 87.0896 7.74862 87.0896L7.73862 87.1096Z" fill="#242328"/>
<path d="M105.112 67.2544V20.7089H134.93V27.7771H113.544V40.4135H132.885V47.4817H113.544V67.2544H105.112ZM142.249 67.2544V32.3453H150.476V67.2544H142.249ZM146.385 27.3908C145.082 27.3908 143.961 26.9589 143.021 26.0953C142.082 25.2165 141.612 24.1635 141.612 22.9362C141.612 21.6938 142.082 20.6408 143.021 19.7771C143.961 18.8983 145.082 18.4589 146.385 18.4589C147.703 18.4589 148.824 18.8983 149.749 19.7771C150.688 20.6408 151.158 21.6938 151.158 22.9362C151.158 24.1635 150.688 25.2165 149.749 26.0953C148.824 26.9589 147.703 27.3908 146.385 27.3908ZM174.391 67.9362C170.891 67.9362 167.868 67.2089 165.322 65.7544C162.792 64.2847 160.845 62.2089 159.481 59.5271C158.118 56.8302 157.436 53.6559 157.436 50.0044C157.436 46.4135 158.118 43.262 159.481 40.5498C160.86 37.8226 162.784 35.7014 165.254 34.1862C167.724 32.6559 170.625 31.8908 173.959 31.8908C176.11 31.8908 178.141 32.2392 180.05 32.9362C181.974 33.618 183.671 34.6786 185.141 36.118C186.625 37.5574 187.792 39.3908 188.641 41.618C189.489 43.8302 189.913 46.4665 189.913 49.5271V52.0498H161.3V46.5044H182.027C182.012 44.9286 181.671 43.5271 181.004 42.2998C180.338 41.0574 179.406 40.0802 178.209 39.368C177.027 38.6559 175.648 38.2998 174.072 38.2998C172.391 38.2998 170.913 38.7089 169.641 39.5271C168.368 40.3302 167.375 41.3908 166.663 42.7089C165.966 44.012 165.61 45.4438 165.595 47.0044V51.8453C165.595 53.8756 165.966 55.618 166.709 57.0726C167.451 58.512 168.489 59.618 169.822 60.3908C171.156 61.1483 172.716 61.5271 174.504 61.5271C175.701 61.5271 176.784 61.3605 177.754 61.0271C178.724 60.6786 179.565 60.1711 180.277 59.5044C180.989 58.8377 181.527 58.012 181.891 57.0271L189.572 57.8908C189.088 59.9211 188.163 61.6938 186.8 63.2089C185.451 64.7089 183.724 65.8756 181.618 66.7089C179.512 67.5271 177.103 67.9362 174.391 67.9362ZM205.101 20.7089V67.2544H196.874V20.7089H205.101ZM226.516 67.868C223.773 67.868 221.319 67.1635 219.152 65.7544C216.985 64.3453 215.273 62.2998 214.016 59.618C212.758 56.9362 212.129 53.6786 212.129 49.8453C212.129 45.9665 212.766 42.6938 214.038 40.0271C215.326 37.3453 217.061 35.3226 219.243 33.9589C221.425 32.5802 223.856 31.8908 226.538 31.8908C228.584 31.8908 230.266 32.2392 231.584 32.9362C232.902 33.618 233.947 34.4438 234.72 35.4135C235.493 36.368 236.091 37.2695 236.516 38.118H236.856V20.7089H245.106V67.2544H237.016V61.7544H236.516C236.091 62.6029 235.478 63.5044 234.675 64.4589C233.872 65.3983 232.811 66.2014 231.493 66.868C230.175 67.5347 228.516 67.868 226.516 67.868ZM228.811 61.118C230.553 61.118 232.038 60.6483 233.266 59.7089C234.493 58.7544 235.425 57.4286 236.061 55.7317C236.697 54.0347 237.016 52.0574 237.016 49.7998C237.016 47.5423 236.697 45.5802 236.061 43.9135C235.44 42.2468 234.516 40.9514 233.288 40.0271C232.076 39.1029 230.584 38.6408 228.811 38.6408C226.978 38.6408 225.447 39.118 224.22 40.0726C222.993 41.0271 222.069 42.3453 221.447 44.0271C220.826 45.7089 220.516 47.6332 220.516 49.7998C220.516 51.9817 220.826 53.9286 221.447 55.6408C222.084 57.3377 223.016 58.6786 224.243 59.6635C225.485 60.6332 227.008 61.118 228.811 61.118ZM294.078 36.4135H285.578C285.336 35.0195 284.889 33.7847 284.237 32.7089C283.586 31.618 282.775 30.6938 281.805 29.9362C280.836 29.1786 279.73 28.6105 278.487 28.2317C277.26 27.8377 275.934 27.6408 274.51 27.6408C271.98 27.6408 269.737 28.2771 267.783 29.5498C265.828 30.8074 264.298 32.6559 263.192 35.0953C262.086 37.5195 261.533 40.4817 261.533 43.9817C261.533 47.5423 262.086 50.5423 263.192 52.9817C264.313 55.4059 265.843 57.2392 267.783 58.4817C269.737 59.7089 271.972 60.3226 274.487 60.3226C275.881 60.3226 277.184 60.1408 278.396 59.7771C279.624 59.3983 280.722 58.8453 281.692 58.118C282.677 57.3908 283.502 56.4968 284.169 55.4362C284.851 54.3756 285.32 53.1635 285.578 51.7998L294.078 51.8453C293.76 54.0574 293.07 56.1332 292.01 58.0726C290.964 60.012 289.593 61.7241 287.896 63.2089C286.199 64.6786 284.214 65.8302 281.942 66.6635C279.669 67.4817 277.146 67.8908 274.374 67.8908C270.283 67.8908 266.631 66.9438 263.419 65.0498C260.207 63.1559 257.677 60.4211 255.828 56.8453C253.98 53.2695 253.055 48.9817 253.055 43.9817C253.055 38.9665 253.987 34.6786 255.851 31.118C257.714 27.5423 260.252 24.8074 263.464 22.9135C266.677 21.0195 270.313 20.0726 274.374 20.0726C276.964 20.0726 279.374 20.4362 281.601 21.1635C283.828 21.8908 285.813 22.9589 287.555 24.368C289.298 25.762 290.73 27.4741 291.851 29.5044C292.987 31.5195 293.73 33.8226 294.078 36.4135ZM311.481 67.9589C309.269 67.9589 307.277 67.565 305.504 66.7771C303.747 65.9741 302.353 64.7923 301.322 63.2317C300.307 61.6711 299.8 59.7468 299.8 57.4589C299.8 55.4892 300.163 53.8605 300.891 52.5726C301.618 51.2847 302.61 50.2544 303.868 49.4817C305.125 48.7089 306.542 48.1256 308.118 47.7317C309.709 47.3226 311.353 47.0271 313.05 46.8453C315.095 46.6332 316.754 46.4438 318.027 46.2771C319.3 46.0953 320.224 45.8226 320.8 45.4589C321.391 45.0802 321.686 44.4968 321.686 43.7089V43.5726C321.686 41.8605 321.178 40.5347 320.163 39.5953C319.148 38.6559 317.686 38.1862 315.777 38.1862C313.762 38.1862 312.163 38.6256 310.981 39.5044C309.815 40.3832 309.027 41.4211 308.618 42.618L300.936 41.5271C301.542 39.4059 302.542 37.6332 303.936 36.2089C305.33 34.7695 307.034 33.6938 309.05 32.9817C311.065 32.2544 313.292 31.8908 315.731 31.8908C317.413 31.8908 319.088 32.0877 320.754 32.4817C322.421 32.8756 323.944 33.5271 325.322 34.4362C326.701 35.3302 327.807 36.5498 328.641 38.0953C329.489 39.6408 329.913 41.5726 329.913 43.8908V67.2544H322.004V62.4589H321.731C321.231 63.4286 320.527 64.3377 319.618 65.1862C318.724 66.0195 317.595 66.6938 316.231 67.2089C314.883 67.7089 313.3 67.9589 311.481 67.9589ZM313.618 61.9135C315.269 61.9135 316.701 61.5877 317.913 60.9362C319.125 60.2695 320.057 59.3908 320.709 58.2998C321.375 57.2089 321.709 56.0195 321.709 54.7317V50.618C321.451 50.8302 321.012 51.0271 320.391 51.2089C319.784 51.3908 319.103 51.5498 318.345 51.6862C317.588 51.8226 316.838 51.9438 316.095 52.0498C315.353 52.1559 314.709 52.2468 314.163 52.3226C312.936 52.4892 311.838 52.762 310.868 53.1408C309.898 53.5195 309.133 54.0498 308.572 54.7317C308.012 55.3983 307.731 56.262 307.731 57.3226C307.731 58.8377 308.284 59.9817 309.391 60.7544C310.497 61.5271 311.906 61.9135 313.618 61.9135ZM338.186 67.2544V32.3453H346.05V38.2771H346.459C347.186 36.2771 348.391 34.7165 350.072 33.5953C351.754 32.4589 353.762 31.8908 356.095 31.8908C358.459 31.8908 360.451 32.4665 362.072 33.618C363.709 34.7544 364.86 36.3074 365.527 38.2771H365.891C366.663 36.3377 367.966 34.7923 369.8 33.6408C371.648 32.4741 373.838 31.8908 376.368 31.8908C379.58 31.8908 382.201 32.9059 384.231 34.9362C386.262 36.9665 387.277 39.9286 387.277 43.8226V67.2544H379.027V45.0953C379.027 42.9286 378.451 41.3453 377.3 40.3453C376.148 39.3302 374.739 38.8226 373.072 38.8226C371.088 38.8226 369.534 39.4438 368.413 40.6862C367.307 41.9135 366.754 43.512 366.754 45.4817V67.2544H358.686V44.7544C358.686 42.9514 358.141 41.512 357.05 40.4362C355.974 39.3605 354.565 38.8226 352.822 38.8226C351.641 38.8226 350.565 39.1256 349.595 39.7317C348.625 40.3226 347.853 41.1635 347.277 42.2544C346.701 43.3302 346.413 44.5877 346.413 46.0271V67.2544H338.186ZM395.624 80.3453V32.3453H403.714V38.118H404.192C404.616 37.2695 405.214 36.368 405.987 35.4135C406.76 34.4438 407.805 33.618 409.124 32.9362C410.442 32.2392 412.124 31.8908 414.169 31.8908C416.866 31.8908 419.298 32.5802 421.464 33.9589C423.646 35.3226 425.374 37.3453 426.646 40.0271C427.934 42.6938 428.578 45.9665 428.578 49.8453C428.578 53.6786 427.949 56.9362 426.692 59.618C425.434 62.2998 423.722 64.3453 421.555 65.7544C419.389 67.1635 416.934 67.868 414.192 67.868C412.192 67.868 410.533 67.5347 409.214 66.868C407.896 66.2014 406.836 65.3983 406.033 64.4589C405.245 63.5044 404.631 62.6029 404.192 61.7544H403.851V80.3453H395.624ZM403.692 49.7998C403.692 52.0574 404.01 54.0347 404.646 55.7317C405.298 57.4286 406.23 58.7544 407.442 59.7089C408.669 60.6483 410.154 61.118 411.896 61.118C413.714 61.118 415.237 60.6332 416.464 59.6635C417.692 58.6786 418.616 57.3377 419.237 55.6408C419.874 53.9286 420.192 51.9817 420.192 49.7998C420.192 47.6332 419.881 45.7089 419.26 44.0271C418.639 42.3453 417.714 41.0271 416.487 40.0726C415.26 39.118 413.73 38.6408 411.896 38.6408C410.139 38.6408 408.646 39.1029 407.419 40.0271C406.192 40.9514 405.26 42.2468 404.624 43.9135C404.002 45.5802 403.692 47.5423 403.692 49.7998Z" fill="#242328"/>
</svg>
