<svg width="19" height="17" viewBox="0 0 19 17" fill="none" xmlns="http://www.w3.org/2000/svg">
<path d="M18.4654 9.12138L11.5726 16.0142C11.4289 16.1579 11.234 16.2386 11.0308 16.2386C10.8275 16.2386 10.6326 16.1579 10.4889 16.0142C10.3452 15.8705 10.2645 15.6756 10.2645 15.4724C10.2645 15.2691 10.3452 15.0742 10.4889 14.9305L16.075 9.3454H1.07446C0.871342 9.3454 0.67654 9.26471 0.532912 9.12108C0.389283 8.97745 0.308594 8.78265 0.308594 8.57953C0.308594 8.37641 0.389283 8.1816 0.532912 8.03798C0.67654 7.89435 0.871342 7.81366 1.07446 7.81366H16.075L10.4889 2.22856C10.3452 2.08485 10.2645 1.88994 10.2645 1.68671C10.2645 1.48347 10.3452 1.28856 10.4889 1.14485C10.6326 1.00114 10.8275 0.92041 11.0308 0.92041C11.234 0.92041 11.4289 1.00114 11.5726 1.14485L18.4654 8.03767C18.5366 8.1088 18.5931 8.19327 18.6317 8.28625C18.6702 8.37922 18.6901 8.47888 18.6901 8.57953C18.6901 8.68017 18.6702 8.77983 18.6317 8.87281C18.5931 8.96578 18.5366 9.05025 18.4654 9.12138Z" fill="#232529"/>
</svg>
