<svg width="25" height="25" viewBox="0 0 25 25" fill="none" xmlns="http://www.w3.org/2000/svg">
<path d="M12.9258 2.56836C10.9974 2.56836 9.11236 3.14019 7.50898 4.21153C5.9056 5.28287 4.65591 6.80562 3.91796 8.5872C3.18001 10.3688 2.98692 12.3292 3.36313 14.2205C3.73934 16.1118 4.66793 17.8491 6.03149 19.2127C7.39506 20.5762 9.13234 21.5048 11.0237 21.881C12.915 22.2572 14.8754 22.0641 16.6569 21.3262C18.4385 20.5882 19.9613 19.3385 21.0326 17.7352C22.104 16.1318 22.6758 14.2467 22.6758 12.3184C22.6731 9.73334 21.6449 7.25497 19.8171 5.42708C17.9892 3.59919 15.5108 2.57109 12.9258 2.56836ZM17.2064 10.599L11.9564 15.849C11.8868 15.9187 11.804 15.974 11.713 16.0118C11.6219 16.0495 11.5243 16.0689 11.4258 16.0689C11.3272 16.0689 11.2296 16.0495 11.1386 16.0118C11.0475 15.974 10.9648 15.9187 10.8952 15.849L8.64516 13.599C8.50443 13.4583 8.42537 13.2674 8.42537 13.0684C8.42537 12.8693 8.50443 12.6785 8.64516 12.5377C8.78589 12.397 8.97676 12.3179 9.17579 12.3179C9.37481 12.3179 9.56568 12.397 9.70641 12.5377L11.4258 14.258L16.1452 9.53773C16.2148 9.46805 16.2976 9.41278 16.3886 9.37506C16.4797 9.33735 16.5772 9.31794 16.6758 9.31794C16.7743 9.31794 16.8719 9.33735 16.963 9.37506C17.054 9.41278 17.1367 9.46805 17.2064 9.53773C17.2761 9.60742 17.3314 9.69014 17.3691 9.78119C17.4068 9.87223 17.4262 9.96981 17.4262 10.0684C17.4262 10.1669 17.4068 10.2645 17.3691 10.3555C17.3314 10.4466 17.2761 10.5293 17.2064 10.599Z" fill="black"/>
</svg>
